<?xml version="1.0" standalone="no"?>
<!DOCTYPE svg PUBLIC "-//W3C//DTD SVG 20010904//EN"
 "http://www.w3.org/TR/2001/REC-SVG-20010904/DTD/svg10.dtd">
<svg version="1.0" xmlns="http://www.w3.org/2000/svg"
 width="438.000000pt" height="438.000000pt" viewBox="0 0 438.000000 438.000000"
 preserveAspectRatio="xMidYMid meet">
<metadata>
Created by potrace 1.14, written by Peter Selinger 2001-2017
</metadata>
<g transform="translate(0.000000,438.000000) scale(0.100000,-0.100000)"
fill="#000000" stroke="none">
<path d="M1651 4058 c-35 -12 -19 -21 20 -11 21 6 28 11 19 15 -8 3 -26 1 -39
-4z"/>
<path d="M1926 4054 c-9 -24 -7 -28 9 -14 17 14 20 30 6 30 -5 0 -12 -7 -15
-16z"/>
<path d="M2030 4051 c0 -6 5 -13 10 -16 6 -3 10 1 10 9 0 9 -4 16 -10 16 -5 0
-10 -4 -10 -9z"/>
<path d="M1815 4040 c3 -5 8 -10 11 -10 2 0 4 5 4 10 0 6 -5 10 -11 10 -5 0
-7 -4 -4 -10z"/>
<path d="M1475 4000 c-3 -5 1 -10 9 -10 9 0 16 5 16 10 0 6 -4 10 -9 10 -6 0
-13 -4 -16 -10z"/>
<path d="M1565 4000 c-3 -5 -15 -10 -26 -10 -10 0 -19 -4 -19 -10 0 -16 33
-11 60 10 20 15 21 20 8 20 -9 0 -20 -4 -23 -10z"/>
<path d="M1663 3996 c-13 -6 -23 -14 -23 -18 0 -13 33 -9 53 6 33 26 13 34
-30 12z"/>
<path d="M1802 3998 c-17 -17 -15 -28 6 -28 19 0 42 18 42 32 0 12 -35 9 -48
-4z"/>
<path d="M1957 4003 c-14 -13 -6 -33 13 -33 13 0 20 7 20 20 0 19 -20 27 -33
13z"/>
<path d="M2112 3994 c2 -11 11 -20 22 -22 13 -3 17 1 14 14 -2 11 -11 20 -22
22 -13 3 -17 -1 -14 -14z"/>
<path d="M2262 3998 c6 -17 36 -34 44 -25 4 4 -1 14 -12 22 -23 18 -37 19 -32
3z"/>
<path d="M1422 3984 c9 -9 21 -13 27 -9 16 10 3 25 -22 25 -20 0 -20 -1 -5
-16z"/>
<path d="M2400 3996 c0 -2 7 -9 15 -16 9 -7 15 -8 15 -2 0 5 -7 12 -15 16 -8
3 -15 4 -15 2z"/>
<path d="M1355 3980 c-3 -5 -2 -10 4 -10 5 0 13 5 16 10 3 6 2 10 -4 10 -5 0
-13 -4 -16 -10z"/>
<path d="M1255 3920 c-3 -5 -15 -10 -26 -10 -10 0 -19 -4 -19 -10 0 -5 -8 -10
-17 -10 -14 0 -15 -2 -4 -12 11 -10 14 -10 18 0 3 6 13 12 24 12 10 0 19 5 19
10 0 6 6 10 14 10 8 0 18 5 21 10 3 6 -1 10 -9 10 -8 0 -18 -4 -21 -10z"/>
<path d="M1335 3914 c-11 -8 -27 -19 -35 -24 -8 -5 -12 -12 -7 -16 8 -8 97 35
97 48 0 13 -33 9 -55 -8z"/>
<path d="M1468 3909 c-28 -21 -36 -39 -18 -39 14 0 80 43 80 53 0 14 -35 6
-62 -14z"/>
<path d="M1630 3905 c-20 -21 -21 -25 -7 -30 19 -8 67 22 67 41 0 22 -35 16
-60 -11z"/>
<path d="M1831 3916 c-12 -14 -5 -46 10 -46 15 0 50 40 44 50 -9 15 -41 12
-54 -4z"/>
<path d="M2036 3914 c-7 -19 9 -34 37 -34 13 0 18 6 15 23 -4 27 -42 36 -52
11z"/>
<path d="M2245 3921 c-6 -10 21 -41 35 -41 16 0 22 21 10 35 -14 17 -36 20
-45 6z"/>
<path d="M2430 3915 c0 -17 39 -36 54 -27 5 2 -2 13 -15 23 -29 23 -39 24 -39
4z"/>
<path d="M2590 3921 c0 -12 23 -31 37 -31 21 0 15 14 -12 27 -14 6 -25 8 -25
4z"/>
<path d="M1134 3819 c-49 -26 -75 -49 -68 -60 5 -10 65 22 96 51 31 29 18 33
-28 9z"/>
<path d="M1285 3824 c-40 -20 -65 -44 -65 -61 0 -7 2 -13 4 -13 9 0 54 27 81
48 36 29 22 48 -20 26z"/>
<path d="M1463 3823 c-33 -16 -52 -48 -36 -64 10 -10 71 25 80 47 10 26 -10
34 -44 17z"/>
<path d="M1007 3800 c-26 -16 -47 -32 -47 -35 0 -7 43 5 50 14 3 3 17 12 33
20 26 14 36 31 19 31 -4 0 -29 -13 -55 -30z"/>
<path d="M1668 3816 c-22 -16 -23 -45 -3 -52 21 -9 65 23 65 46 0 24 -35 27
-62 6z"/>
<path d="M1917 3823 c-4 -3 -7 -17 -7 -30 0 -19 5 -23 29 -23 30 0 45 19 35
45 -6 15 -45 21 -57 8z"/>
<path d="M2174 3815 c-8 -20 13 -45 37 -45 24 0 32 16 19 40 -13 23 -48 27
-56 5z"/>
<path d="M2415 3819 c-9 -14 24 -49 47 -49 22 0 23 9 2 38 -16 24 -39 29 -49
11z"/>
<path d="M2630 3814 c0 -18 27 -43 48 -44 21 0 13 27 -13 44 -30 20 -35 20
-35 0z"/>
<path d="M2810 3811 c0 -5 11 -16 25 -25 24 -16 32 -12 17 10 -9 14 -42 26
-42 15z"/>
<path d="M1041 3690 c-41 -30 -59 -55 -48 -66 10 -11 45 7 81 40 64 58 39 78
-33 26z"/>
<path d="M1265 3710 c-56 -22 -87 -100 -33 -85 22 6 78 61 78 76 0 12 -24 17
-45 9z"/>
<path d="M839 3697 c-48 -37 -72 -58 -68 -62 3 -2 18 7 34 21 17 14 37 30 45
34 8 5 13 11 10 13 -3 3 -12 0 -21 -6z"/>
<path d="M886 3677 c-54 -47 -43 -69 14 -26 24 19 45 40 48 47 7 23 -23 12
-62 -21z"/>
<path d="M1472 3694 c-12 -8 -22 -26 -22 -40 0 -20 5 -24 28 -24 31 0 72 36
72 63 0 22 -47 23 -78 1z"/>
<path d="M1744 3685 c-20 -30 -5 -55 32 -55 32 0 62 44 44 65 -19 23 -57 18
-76 -10z"/>
<path d="M2057 3703 c-4 -3 -7 -19 -7 -34 0 -22 6 -30 25 -35 44 -11 72 31 41
62 -15 15 -48 19 -59 7z"/>
<path d="M2350 3682 c0 -30 38 -61 59 -48 28 18 -5 76 -42 76 -12 0 -17 -9
-17 -28z"/>
<path d="M2623 3703 c-18 -6 -16 -16 7 -41 23 -25 60 -29 60 -8 0 18 -51 55
-67 49z"/>
<path d="M2850 3686 c0 -14 36 -46 52 -46 17 0 7 30 -14 44 -28 20 -38 20 -38
2z"/>
<path d="M687 3535 c-44 -42 -58 -65 -39 -65 11 0 102 91 102 102 0 17 -18 6
-63 -37z"/>
<path d="M840 3563 c-33 -23 -70 -65 -70 -80 0 -28 40 -11 79 33 23 26 41 51
41 55 0 14 -24 10 -50 -8z"/>
<path d="M1027 3562 c-56 -38 -77 -92 -34 -92 27 1 46 15 76 59 20 27 21 35
10 42 -19 12 -20 12 -52 -9z"/>
<path d="M1290 3573 c-49 -18 -80 -86 -44 -100 37 -14 107 54 88 85 -12 19
-23 22 -44 15z"/>
<path d="M1546 3551 c-21 -23 -18 -60 6 -75 35 -22 97 38 82 79 -9 22 -67 19
-88 -4z"/>
<path d="M1888 3556 c-28 -21 -23 -63 8 -70 37 -10 63 2 70 30 12 46 -38 71
-78 40z"/>
<path d="M2230 3550 c-17 -32 4 -60 45 -60 30 0 35 3 35 23 0 27 -28 57 -53
57 -9 0 -21 -9 -27 -20z"/>
<path d="M2563 3563 c-17 -6 -16 -41 1 -59 22 -21 66 -18 66 4 0 28 -44 63
-67 55z"/>
<path d="M2835 3549 c-9 -14 34 -59 57 -59 24 0 23 21 -2 48 -22 24 -45 28
-55 11z"/>
<path d="M3075 3549 c-7 -11 31 -59 47 -59 16 0 8 33 -14 51 -25 22 -25 22
-33 8z"/>
<path d="M611 3384 c-53 -61 -57 -113 -5 -66 34 30 64 74 64 93 0 30 -15 23
-59 -27z"/>
<path d="M790 3390 c-50 -50 -57 -96 -13 -85 46 11 96 85 78 114 -11 18 -23
13 -65 -29z"/>
<path d="M1050 3407 c-33 -16 -56 -65 -42 -86 25 -40 102 9 102 66 0 37 -16
42 -60 20z"/>
<path d="M1350 3407 c-27 -14 -46 -56 -37 -81 10 -26 64 -20 92 10 30 32 32
60 6 74 -25 13 -30 13 -61 -3z"/>
<path d="M525 3397 c-29 -34 -57 -79 -52 -84 9 -8 77 73 77 91 0 10 -14 6 -25
-7z"/>
<path d="M1683 3395 c-7 -8 -13 -28 -13 -44 0 -25 5 -32 26 -37 14 -4 36 -1
50 7 21 11 24 19 22 48 -3 33 -6 36 -38 38 -21 2 -40 -3 -47 -12z"/>
<path d="M444 3228 c-33 -38 -54 -76 -54 -99 l0 -22 26 24 c22 20 64 95 64
113 0 13 -18 5 -36 -16z"/>
<path d="M580 3218 c-52 -57 -50 -128 2 -94 29 19 73 99 64 115 -12 19 -36 12
-66 -21z"/>
<path d="M812 3221 c-40 -39 -52 -79 -27 -97 37 -27 111 44 103 99 -5 34 -39
32 -76 -2z"/>
<path d="M1122 3235 c-12 -9 -29 -29 -37 -45 -13 -26 -13 -30 4 -51 16 -20 23
-22 46 -14 43 15 71 59 59 92 -11 33 -40 40 -72 18z"/>
<path d="M1482 3237 c-55 -31 -64 -89 -16 -107 66 -26 129 65 72 104 -27 19
-27 19 -56 3z"/>
<path d="M2360 3244 c0 -3 19 -25 43 -47 55 -54 120 -188 148 -307 4 -19 13
-55 19 -80 83 -355 87 -952 9 -1310 -26 -117 -50 -202 -61 -214 -4 -6 -8 -16
-8 -24 0 -31 -66 -146 -107 -187 l-45 -45 220 0 219 0 45 39 c28 25 56 65 77
108 18 37 37 76 42 85 5 10 9 27 9 37 0 11 4 22 9 25 5 3 11 18 14 33 4 16 11
51 17 78 56 256 74 483 66 816 -6 247 -14 330 -57 544 -33 164 -101 333 -162
396 -51 54 -76 59 -297 59 -110 0 -200 -3 -200 -6z"/>
<path d="M2970 3244 c0 -4 18 -22 39 -41 36 -31 121 -181 121 -212 0 -6 4 -19
9 -29 5 -9 14 -35 19 -57 6 -22 15 -58 20 -80 45 -177 72 -438 72 -694 0 -241
-28 -509 -71 -683 -22 -93 -32 -124 -40 -140 -5 -10 -9 -22 -9 -28 0 -30 -78
-168 -116 -206 l-43 -44 215 0 c144 0 223 4 237 12 96 51 194 292 236 583 26
185 31 260 31 510 0 250 -5 325 -31 510 -18 119 -55 278 -82 345 -5 14 -14 36
-20 50 -40 101 -86 163 -141 189 -38 19 -61 21 -244 21 -111 0 -202 -3 -202
-6z"/>
<path d="M3570 3243 c0 -3 17 -23 39 -44 54 -53 114 -179 149 -314 41 -156 63
-300 82 -545 16 -208 10 -365 -21 -630 -36 -304 -118 -552 -211 -635 -21 -19
-38 -37 -38 -40 0 -3 98 -5 218 -5 l218 0 41 35 c40 34 123 177 123 211 0 8 4
22 9 32 5 9 14 35 19 57 6 22 15 58 20 80 79 312 93 845 33 1215 -15 88 -29
158 -40 200 -6 19 -14 51 -19 70 -14 52 -29 90 -68 174 -23 52 -82 115 -121
131 -27 12 -82 15 -234 15 -110 0 -199 -3 -199 -7z"/>
<path d="M1872 3229 c-26 -10 -38 -50 -22 -78 16 -32 74 -29 96 4 32 48 -16
95 -74 74z"/>
<path d="M406 3039 c-31 -36 -58 -97 -50 -110 21 -35 94 50 94 111 0 32 -17
32 -44 -1z"/>
<path d="M604 3034 c-27 -28 -34 -44 -34 -75 0 -33 3 -39 21 -39 35 0 79 56
79 100 0 54 -24 59 -66 14z"/>
<path d="M879 3029 c-30 -33 -38 -76 -17 -97 19 -19 44 -14 77 14 23 19 31 34
31 58 0 62 -45 74 -91 25z"/>
<path d="M1250 3047 c-35 -18 -53 -58 -40 -91 8 -22 16 -26 49 -26 47 0 71 26
71 77 0 27 -5 35 -26 43 -30 12 -24 12 -54 -3z"/>
<path d="M272 3005 c-23 -47 -28 -75 -14 -75 10 0 52 85 52 105 0 28 -16 15
-38 -30z"/>
<path d="M1630 3028 c-11 -12 -20 -31 -20 -43 0 -46 63 -71 103 -41 20 15 23
76 5 94 -19 19 -65 14 -88 -10z"/>
<path d="M2236 2864 c-20 -21 -26 -37 -26 -71 0 -66 -22 -109 -66 -128 -63
-26 -99 -20 -139 24 -49 54 -87 69 -128 48 -59 -28 -146 -115 -153 -152 -7
-40 14 -90 56 -130 36 -34 37 -54 8 -117 -28 -57 -50 -68 -132 -68 -90 0 -102
-16 -110 -140 -5 -69 -3 -102 6 -120 19 -35 74 -60 135 -60 57 0 63 -6 90 -80
19 -53 17 -61 -37 -118 -70 -74 -69 -105 4 -191 96 -114 130 -118 234 -29 37
32 55 34 96 13 15 -8 33 -15 38 -15 25 0 38 -31 38 -90 0 -99 42 -150 123
-150 39 0 51 11 61 55 4 17 11 48 17 70 27 108 47 221 55 323 l7 72 -72 0
c-140 0 -234 73 -280 219 -16 49 -14 89 8 148 49 134 134 194 274 194 l78 1
-6 86 c-9 137 -37 297 -71 420 -2 7 -20 12 -42 12 -29 0 -46 -7 -66 -26z"/>
<path d="M415 2840 c-21 -21 -27 -39 -28 -76 -2 -44 0 -49 20 -52 31 -4 63 49
63 104 0 53 -19 61 -55 24z"/>
<path d="M248 2838 c-39 -63 -51 -128 -23 -128 8 0 19 8 24 18 14 26 41 104
41 120 0 20 -27 14 -42 -10z"/>
<path d="M673 2843 c-11 -10 -26 -35 -32 -56 -11 -34 -11 -41 5 -58 23 -26 43
-24 76 8 22 21 28 36 28 69 0 55 -36 72 -77 37z"/>
<path d="M1024 2850 c-48 -19 -69 -93 -36 -123 36 -32 86 -11 110 46 14 32 4
60 -28 77 -21 11 -18 11 -46 0z"/>
<path d="M1392 2827 c-22 -23 -28 -62 -14 -83 16 -24 51 -35 75 -23 40 21 57
42 57 69 0 57 -77 81 -118 37z"/>
<path d="M266 2643 c-17 -17 -36 -77 -36 -115 0 -35 2 -39 22 -36 30 4 60 68
56 116 -3 36 -24 53 -42 35z"/>
<path d="M484 2637 c-23 -26 -34 -56 -34 -89 0 -59 39 -76 79 -34 18 19 22 33
19 77 -3 49 -5 54 -28 56 -14 2 -30 -3 -36 -10z"/>
<path d="M795 2632 c-12 -9 -27 -29 -35 -45 -12 -24 -11 -32 3 -62 12 -26 23
-35 41 -35 58 0 96 83 62 135 -19 29 -43 32 -71 7z"/>
<path d="M1181 2636 c-26 -14 -50 -51 -51 -77 0 -20 47 -69 67 -69 8 0 28 9
44 21 23 16 29 28 29 57 0 43 -7 55 -37 71 -26 13 -22 13 -52 -3z"/>
<path d="M136 2628 c-3 -7 -9 -28 -15 -47 -13 -40 -14 -91 -3 -91 10 0 28 53
37 108 5 28 3 42 -4 42 -7 0 -13 -6 -15 -12z"/>
<path d="M142 2410 c-6 -11 -12 -49 -12 -86 0 -57 2 -65 18 -62 29 6 43 168
14 168 -4 0 -13 -9 -20 -20z"/>
<path d="M323 2418 c-5 -7 -15 -31 -22 -53 -13 -41 -5 -85 18 -100 50 -30 98
107 53 148 -22 20 -36 21 -49 5z"/>
<path d="M595 2404 c-35 -38 -35 -107 -1 -129 20 -13 29 -14 46 -5 42 22 54
106 20 140 -26 26 -36 25 -65 -6z"/>
<path d="M948 2403 c-34 -39 -38 -59 -23 -97 14 -33 19 -36 55 -36 47 0 70 26
70 82 0 27 -6 41 -22 52 -29 21 -61 20 -80 -1z"/>
<path d="M205 2184 c-21 -21 -20 -121 1 -145 35 -39 63 18 50 105 -8 48 -27
64 -51 40z"/>
<path d="M70 2116 c0 -77 11 -102 29 -67 14 25 14 82 1 115 -18 48 -30 28 -30
-48z"/>
<path d="M426 2168 c-20 -29 -20 -87 0 -116 17 -24 53 -29 72 -10 16 16 16
120 0 136 -19 19 -55 14 -72 -10z"/>
<path d="M747 2172 c-24 -26 -23 -104 1 -125 45 -41 102 -6 102 63 0 20 -7 46
-16 58 -19 27 -64 29 -87 4z"/>
<path d="M1136 2164 c-33 -34 -34 -73 -1 -108 27 -29 60 -33 93 -10 31 21 31
95 0 124 -30 27 -60 25 -92 -6z"/>
<path d="M319 1953 c-22 -26 -16 -121 10 -146 32 -32 55 -13 59 49 5 74 -38
135 -69 97z"/>
<path d="M130 1912 c0 -62 24 -124 45 -116 32 13 7 155 -28 162 -14 3 -17 -5
-17 -46z"/>
<path d="M587 1942 c-34 -37 -15 -116 34 -142 15 -9 24 -6 44 14 28 28 32 61
11 101 -25 48 -61 59 -89 27z"/>
<path d="M934 1924 c-24 -35 -9 -93 29 -114 24 -13 30 -13 55 0 22 13 28 24
30 59 4 54 -17 81 -64 81 -25 0 -38 -7 -50 -26z"/>
<path d="M125 1688 c9 -57 27 -108 38 -108 9 0 6 39 -8 107 -4 17 -14 34 -22
37 -12 5 -14 -1 -8 -36z"/>
<path d="M245 1720 c-20 -33 23 -150 55 -150 25 0 21 93 -6 138 -15 23 -38 29
-49 12z"/>
<path d="M462 1705 c-13 -29 0 -78 31 -112 27 -30 43 -29 63 3 15 22 16 30 4
62 -25 73 -75 97 -98 47z"/>
<path d="M782 1718 c-22 -28 -18 -88 8 -116 54 -58 127 9 88 81 -23 44 -73 62
-96 35z"/>
<path d="M1165 1714 c-26 -19 -27 -84 -1 -109 21 -22 80 -25 98 -7 7 7 13 31
13 53 0 64 -62 100 -110 63z"/>
<path d="M230 1491 c0 -38 37 -121 54 -121 22 0 24 10 13 48 -25 85 -67 130
-67 73z"/>
<path d="M403 1513 c-25 -9 -10 -83 25 -125 9 -10 26 -18 39 -18 19 0 23 5 23
31 0 17 -10 48 -21 69 -21 38 -42 51 -66 43z"/>
<path d="M657 1503 c-11 -10 -8 -62 5 -86 26 -50 76 -62 97 -23 15 27 9 53
-20 90 -20 25 -66 36 -82 19z"/>
<path d="M990 1484 c-15 -38 -13 -49 16 -83 44 -53 104 -38 104 25 0 68 -98
116 -120 58z"/>
<path d="M1392 1487 c-29 -30 -28 -49 4 -86 45 -54 114 -32 114 36 0 36 -36
73 -71 73 -14 0 -35 -10 -47 -23z"/>
<path d="M375 1300 c-7 -12 29 -95 50 -116 7 -8 21 -14 29 -14 25 0 19 41 -14
93 -29 45 -52 58 -65 37z"/>
<path d="M586 1295 c-17 -45 34 -125 80 -125 20 0 24 5 24 33 0 61 -86 137
-104 92z"/>
<path d="M883 1303 c-7 -2 -13 -22 -13 -42 0 -66 75 -118 110 -76 17 21 5 62
-30 96 -28 28 -42 33 -67 22z"/>
<path d="M1233 1293 c-34 -23 -30 -65 8 -97 36 -31 60 -33 82 -8 31 34 16 81
-33 107 -34 18 -29 18 -57 -2z"/>
<path d="M268 1283 c30 -71 48 -103 60 -108 17 -6 8 23 -23 79 -23 41 -52 64
-37 29z"/>
<path d="M1620 1265 c-24 -45 29 -95 86 -81 31 8 41 48 20 81 -23 36 -87 36
-106 0z"/>
<path d="M400 1102 c0 -14 70 -112 80 -112 24 0 -3 62 -46 108 -14 13 -34 16
-34 4z"/>
<path d="M550 1093 c0 -46 82 -132 100 -104 11 19 2 44 -32 85 -31 38 -68 48
-68 19z"/>
<path d="M781 1096 c-10 -11 -9 -21 2 -43 25 -47 55 -68 95 -64 24 2 13 58
-19 90 -33 34 -60 39 -78 17z"/>
<path d="M1082 1098 c-34 -34 20 -112 74 -106 24 2 30 8 32 34 5 55 -71 107
-106 72z"/>
<path d="M1436 1091 c-31 -34 5 -101 54 -101 58 0 74 57 27 100 -26 25 -59 25
-81 1z"/>
<path d="M1830 1078 c-25 -27 -25 -30 5 -62 40 -44 95 -26 95 32 0 52 -62 71
-100 30z"/>
<path d="M490 923 c0 -15 80 -103 93 -102 8 0 8 2 0 6 -7 2 -13 10 -13 17 0 6
-18 30 -40 51 -22 21 -40 34 -40 28z"/>
<path d="M580 924 c0 -16 44 -76 70 -94 34 -24 40 -25 40 -5 0 26 -71 105 -95
105 -8 0 -15 -3 -15 -6z"/>
<path d="M757 924 c-18 -18 66 -114 99 -114 24 0 16 44 -17 83 -28 34 -65 48
-82 31z"/>
<path d="M1006 915 c-15 -41 59 -119 93 -98 22 15 15 52 -16 85 -29 30 -67 37
-77 13z"/>
<path d="M1310 915 c-18 -22 1 -67 40 -89 l33 -20 18 23 c24 30 24 34 -7 70
-28 33 -64 40 -84 16z"/>
<path d="M1662 911 c-22 -14 -10 -64 18 -78 42 -20 70 -7 70 33 0 45 -49 70
-88 45z"/>
<path d="M670 758 c0 -17 71 -88 88 -88 19 0 14 10 -20 44 -55 52 -68 61 -68
44z"/>
<path d="M790 758 c0 -26 79 -98 107 -98 23 0 14 17 -33 64 -45 45 -74 58 -74
34z"/>
<path d="M990 744 c0 -27 9 -39 50 -67 34 -24 50 -21 50 7 0 16 -13 35 -37 55
-46 38 -63 39 -63 5z"/>
<path d="M1237 763 c-22 -21 8 -77 50 -94 70 -27 66 52 -4 89 -25 14 -37 15
-46 5z"/>
<path d="M1527 741 c-2 -11 1 -30 7 -43 9 -18 20 -23 51 -23 33 0 41 4 43 20
7 49 -89 92 -101 46z"/>
<path d="M1857 744 c-27 -27 16 -81 58 -72 27 5 42 34 29 56 -11 17 -74 29
-87 16z"/>
<path d="M2202 730 c-31 -50 42 -84 74 -35 13 20 14 28 4 40 -18 22 -63 19
-78 -5z"/>
<path d="M2530 728 c-24 -26 -25 -32 -5 -48 22 -18 65 12 65 45 0 32 -31 34
-60 3z"/>
<path d="M2816 723 c-19 -19 -24 -29 -16 -37 16 -16 64 14 68 42 5 30 -19 28
-52 -5z"/>
<path d="M3058 728 c-27 -19 -38 -48 -19 -48 18 0 53 37 50 52 -4 15 -7 14
-31 -4z"/>
<path d="M870 611 c0 -17 89 -83 107 -79 14 3 5 13 -35 46 -54 42 -72 50 -72
33z"/>
<path d="M1010 609 c0 -20 73 -79 98 -79 33 0 24 18 -27 58 -43 33 -71 41 -71
21z"/>
<path d="M1213 604 c-8 -21 47 -74 77 -74 45 0 6 67 -49 85 -15 4 -23 1 -28
-11z"/>
<path d="M1450 592 c0 -27 42 -62 73 -62 34 0 36 28 4 58 -29 28 -77 30 -77 4z"/>
<path d="M1730 582 c0 -20 7 -33 24 -42 32 -16 56 -7 56 23 0 31 -18 47 -52
47 -24 0 -28 -4 -28 -28z"/>
<path d="M2037 604 c-4 -4 -7 -20 -7 -35 0 -38 35 -49 64 -20 16 17 18 25 10
39 -11 18 -55 28 -67 16z"/>
<path d="M2330 585 c-24 -26 -25 -27 -6 -41 17 -12 23 -12 40 0 25 16 28 59 6
64 -9 1 -27 -9 -40 -23z"/>
<path d="M2603 586 c-22 -19 -25 -27 -16 -37 9 -9 17 -8 37 5 26 17 34 40 17
51 -5 3 -22 -6 -38 -19z"/>
<path d="M2832 584 c-27 -18 -29 -34 -4 -34 21 0 42 18 42 37 0 17 -11 16 -38
-3z"/>
<path d="M830 582 c0 -4 9 -13 20 -20 11 -7 20 -9 20 -4 0 4 -9 13 -20 20 -11
7 -20 9 -20 4z"/>
<path d="M996 483 c-7 -8 51 -48 84 -58 22 -6 23 -6 10 8 -22 22 -87 57 -94
50z"/>
<path d="M1090 484 c0 -15 87 -74 110 -74 21 0 7 16 -40 48 -47 30 -70 39 -70
26z"/>
<path d="M1240 483 c1 -21 67 -73 94 -73 29 0 17 18 -41 58 -31 22 -53 28 -53
15z"/>
<path d="M1430 474 c0 -21 49 -64 73 -64 27 0 20 25 -14 54 -35 30 -59 34 -59
10z"/>
<path d="M1657 483 c-15 -14 -6 -42 19 -58 48 -31 74 5 32 45 -22 21 -40 25
-51 13z"/>
<path d="M1901 471 c-17 -11 -9 -36 16 -49 13 -7 24 -6 38 4 36 26 -16 70 -54
45z"/>
<path d="M2168 469 c-35 -20 -16 -56 23 -44 13 5 19 14 17 28 -4 25 -17 30
-40 16z"/>
<path d="M2413 469 c-14 -5 -23 -17 -23 -29 0 -25 11 -25 41 -1 29 23 16 44
-18 30z"/>
<path d="M2606 455 c-29 -22 -7 -40 22 -19 12 8 22 19 22 25 0 13 -22 10 -44
-6z"/>
<path d="M2781 454 c-7 -8 -11 -18 -8 -20 7 -8 47 15 47 26 0 15 -23 11 -39
-6z"/>
<path d="M1326 366 c6 -14 94 -57 94 -46 0 5 -12 17 -27 28 -34 23 -73 34 -67
18z"/>
<path d="M1460 365 c0 -9 71 -55 86 -55 11 0 2 21 -17 39 -25 23 -69 34 -69
16z"/>
<path d="M1634 368 c-8 -13 30 -48 52 -48 25 0 15 29 -15 45 -22 11 -32 12
-37 3z"/>
<path d="M1233 358 c2 -7 8 -13 13 -14 5 0 17 -4 26 -8 34 -15 42 1 9 17 -41
20 -54 21 -48 5z"/>
<path d="M1820 355 c0 -19 39 -40 51 -28 5 5 7 17 3 26 -8 21 -54 23 -54 2z"/>
<path d="M2027 356 c-7 -17 18 -40 33 -31 5 3 10 15 10 26 0 23 -35 27 -43 5z"/>
<path d="M2232 358 c-19 -19 -14 -30 10 -26 13 2 24 11 26 21 4 20 -18 23 -36
5z"/>
<path d="M2414 356 c-22 -17 -11 -35 13 -20 19 12 29 34 16 34 -5 0 -18 -6
-29 -14z"/>
<path d="M2573 356 c-26 -12 -30 -26 -9 -26 13 0 43 28 35 33 -2 2 -14 -2 -26
-7z"/>
<path d="M1390 280 c0 -5 5 -10 11 -10 5 0 7 5 4 10 -3 6 -8 10 -11 10 -2 0
-4 -4 -4 -10z"/>
<path d="M1540 280 c0 -5 9 -10 19 -10 11 0 23 -4 26 -10 7 -12 25 -13 25 -2
0 7 -47 32 -62 32 -4 0 -8 -4 -8 -10z"/>
<path d="M1650 282 c0 -10 60 -35 67 -28 4 3 -2 13 -13 21 -20 15 -54 20 -54
7z"/>
<path d="M1790 282 c0 -14 23 -32 42 -32 23 0 23 9 1 26 -20 15 -43 18 -43 6z"/>
<path d="M1950 270 c0 -13 7 -20 20 -20 23 0 26 10 8 28 -18 18 -28 15 -28 -8z"/>
<path d="M2102 278 c-18 -18 -15 -28 8 -28 13 0 20 7 20 20 0 23 -10 26 -28 8z"/>
<path d="M1440 272 c0 -11 69 -27 78 -18 9 9 0 14 -40 21 -24 5 -38 3 -38 -3z"/>
<path d="M2240 270 c-8 -5 -11 -12 -8 -16 10 -9 38 3 38 16 0 12 -10 13 -30 0z"/>
<path d="M2360 259 c0 -5 5 -7 10 -4 6 3 10 8 10 11 0 2 -4 4 -10 4 -5 0 -10
-5 -10 -11z"/>
<path d="M1668 213 c7 -3 16 -2 19 1 4 3 -2 6 -13 5 -11 0 -14 -3 -6 -6z"/>
<path d="M1720 211 c-18 -5 -21 -9 -11 -15 8 -5 19 -2 29 8 9 9 14 16 12 15
-3 -1 -16 -4 -30 -8z"/>
</g>
</svg>
